<?xml version="1.0" standalone="no"?>
<!DOCTYPE svg PUBLIC "-//W3C//DTD SVG 20010904//EN"
 "http://www.w3.org/TR/2001/REC-SVG-20010904/DTD/svg10.dtd">
<svg version="1.0" xmlns="http://www.w3.org/2000/svg"
 width="260.000000pt" height="260.000000pt" viewBox="0 0 260.000000 260.000000"
 preserveAspectRatio="xMidYMid meet">
  <g transform="translate(0.000000,260.000000) scale(0.100000,-0.100000)"
  fill="#000000" stroke="none">
    <path d="M1191 2373 l-100 -98 -68 38 c-123 67 -354 127 -374 96 -9 -15 -51
    -135 -55 -158 -2 -7 -8 -36 -14 -63 -7 -27 -14 -86 -16 -131 -1 -45 -3 -85 -3
    -89 -1 -5 -10 -8 -22 -8 -31 0 -136 -28 -197 -52 -36 -14 -52 -26 -52 -39 0
    -30 28 -151 49 -211 16 -46 17 -58 6 -58 -53 0 -335 -251 -335 -298 0 -39 200
    -229 293 -277 l52 -28 -27 -83 c-16 -45 -31 -109 -34 -142 l-6 -59 58 -21 c83
    -29 123 -41 169 -48 22 -3 41 -7 41 -7 1 -1 4 -49 7 -107 6 -102 35 -230 70
    -313 16 -37 18 -39 56 -33 121 17 258 62 354 116 31 17 57 27 57 21 0 -12 129
    -142 170 -171 l28 -20 49 38 c27 22 73 66 103 100 l55 60 57 -33 c89 -53 287
    -115 366 -115 22 0 42 43 72 153 27 97 30 121 34 221 l3 80 63 13 c67 13 176
    47 199 62 12 8 12 21 3 80 -7 39 -23 99 -36 135 l-23 65 66 38 c71 41 281 240
    281 267 0 44 -210 242 -307 289 -35 17 -40 23 -32 38 15 30 59 202 59 235 0
    29 -4 33 -57 52 -68 24 -136 43 -177 48 -16 2 -30 5 -31 6 -1 2 -5 48 -8 103
    -6 102 -30 211 -65 300 -23 59 -33 61 -151 34 -98 -23 -176 -52 -257 -96 -35
    -19 -64 -30 -64 -25 0 20 -182 192 -203 192 -4 0 -52 -44 -106 -97z m180 -50
    c89 -93 86 -84 41 -145 -22 -29 -56 -86 -76 -126 l-35 -74 -36 79 c-20 43 -54
    99 -76 125 l-40 48 35 43 c40 49 106 107 121 107 6 0 35 -26 66 -57z m-556 2
    c79 -23 166 -60 221 -95 l21 -13 -29 -63 c-29 -63 -36 -83 -37 -116 -1 -14 -9
    -16 -43 -12 -24 2 -49 7 -56 9 -8 3 -21 -13 -34 -43 -11 -26 -22 -48 -23 -50
    -2 -2 -20 1 -41 7 -56 15 -84 19 -126 20 l-38 1 0 73 c1 77 8 119 42 235 16
    54 25 72 38 72 10 0 57 -11 105 -25z m1113 -37 c29 -90 42 -155 43 -223 3
    -102 3 -103 -31 -100 -25 2 -99 -10 -159 -26 -9 -3 -21 12 -32 41 l-17 45 -57
    0 -58 0 -13 52 c-8 29 -23 72 -35 95 l-21 41 23 18 c47 36 266 116 326 118 6
    1 20 -27 31 -61z m-737 -232 c30 -57 69 -166 69 -192 0 -7 -18 6 -40 30 -22
    24 -69 58 -106 76 -64 31 -66 33 -60 63 3 17 18 56 32 86 l25 56 25 -30 c13
    -16 38 -56 55 -89z m356 -24 c4 -37 4 -37 -51 -61 -31 -13 -77 -43 -103 -67
    -26 -24 -48 -44 -49 -44 -1 0 5 26 13 57 19 72 66 171 106 219 l31 38 24 -53
    c13 -29 26 -69 29 -89z m-532 -92 c84 -29 154 -77 186 -129 l29 -45 -23 -25
    c-63 -68 -99 -161 -90 -228 4 -32 4 -32 -35 -29 -24 2 -52 13 -70 27 -42 34
    -105 122 -119 167 -17 54 -15 143 3 217 19 75 25 77 119 45z m675 15 c0 -2 7
    -30 15 -62 8 -32 16 -88 16 -126 1 -86 -32 -159 -106 -231 -43 -43 -58 -52
    -91 -53 l-40 -1 -2 58 c-1 67 -27 128 -77 188 l-35 40 26 37 c33 50 57 69 127
    105 66 35 167 62 167 45z m-896 -74 c23 -9 24 -13 21 -83 -1 -40 3 -95 10
    -123 7 -27 13 -51 12 -52 -5 -5 -70 62 -105 108 -50 66 -95 161 -81 170 11 7
    106 -7 143 -20z m-214 1 c0 -27 54 -132 94 -185 20 -26 36 -48 36 -50 0 -1
    -53 -2 -117 -2 -65 0 -131 -2 -148 -5 -28 -5 -30 -3 -51 65 -12 39 -24 86 -28
    106 l-6 36 72 21 c119 34 148 37 148 14z m1374 -4 c-11 -39 -35 -81 -79 -143
    -50 -70 -122 -142 -111 -110 19 53 28 125 23 181 -7 67 -5 70 53 81 13 2 27 6
    29 9 2 2 24 4 48 4 41 0 44 -2 37 -22z m183 -3 c108 -25 110 -28 89 -110 -9
    -37 -23 -84 -31 -103 -13 -29 -19 -33 -37 -28 -44 13 -164 18 -219 9 l-56 -9
    52 71 c28 40 62 100 75 134 17 46 27 60 39 57 9 -2 48 -12 88 -21z m-740 -254
    c34 -69 17 -190 -34 -251 l-25 -30 -44 49 c-24 26 -57 54 -73 61 -73 30 -45
    170 52 264 l30 29 38 -43 c21 -24 46 -60 56 -79z m-662 -58 l70 -16 -65 -21
    c-36 -11 -89 -36 -118 -55 -50 -32 -53 -33 -77 -17 -29 19 -85 93 -85 112 0
    27 149 26 275 -3z m1400 -22 c-7 -14 -33 -45 -57 -68 l-43 -42 -45 31 c-57 38
    -125 68 -156 68 -43 0 -26 18 29 30 80 18 208 26 249 16 35 -9 36 -11 23 -35z
    m-1658 -112 c39 -41 42 -47 28 -59 -9 -7 -25 -26 -36 -42 l-20 -28 34 -42 34
    -41 -32 -29 c-19 -16 -48 -51 -65 -78 -18 -28 -34 -50 -36 -50 -14 0 -87 44
    -130 78 -60 48 -164 152 -164 165 0 20 169 174 230 209 l64 37 24 -37 c14 -20
    45 -58 69 -83z m1775 95 c55 -28 111 -73 186 -146 39 -40 72 -75 72 -78 0 -29
    -183 -191 -259 -230 l-37 -18 -26 41 c-15 23 -45 60 -67 81 l-40 39 35 42 34
    42 -34 45 -34 44 28 22 c15 13 45 47 66 77 20 30 39 55 41 55 2 0 18 -7 35
    -16z m-1322 -64 c8 -5 0 -15 -23 -29 -38 -23 -127 -115 -127 -130 0 -16 60
    -80 112 -122 l48 -38 -56 -7 c-75 -9 -125 -1 -188 31 -56 28 -156 119 -156
    141 0 19 117 113 175 141 40 19 65 23 127 22 42 -1 82 -5 88 -9z m929 -5 c69
    -24 201 -129 201 -159 0 -20 -105 -107 -165 -137 -53 -26 -69 -30 -137 -28
    -97 2 -110 10 -65 38 38 23 127 115 127 130 0 16 -60 80 -113 122 -47 38 -47
    38 -20 42 62 9 133 6 172 -8z m-677 -63 c23 -10 51 -28 61 -40 18 -20 18 -20
    -13 -39 -28 -16 -82 -84 -93 -116 -2 -7 -29 -12 -70 -11 -60 0 -71 3 -120 37
    -30 21 -62 46 -72 57 -16 17 -15 20 12 47 15 15 38 36 50 46 56 48 162 56 245
    19z m439 4 c19 -9 55 -34 79 -55 l45 -39 -43 -40 c-55 -52 -106 -75 -167 -78
    -62 -2 -142 27 -174 63 -22 25 -22 27 -4 34 26 10 79 66 93 100 7 15 19 30 28
    32 34 9 108 0 143 -17z m-297 -208 c16 -15 42 -32 57 -38 19 -8 29 -21 33 -43
    13 -72 -12 -140 -76 -209 l-40 -43 -39 45 c-54 61 -70 96 -74 155 -4 60 22
    145 56 181 l24 25 15 -23 c8 -13 28 -35 44 -50z m-730 -37 c30 -28 120 -71
    161 -78 63 -10 42 -20 -95 -48 -62 -13 -210 -4 -210 13 0 14 105 131 119 132
    3 0 14 -9 25 -19z m1482 -23 c53 -57 76 -96 62 -104 -35 -22 -244 -6 -318 25
    -28 11 -28 11 15 17 39 7 104 36 151 68 21 14 43 26 49 26 6 0 25 -15 41 -32z
    m-960 -40 c-6 -75 42 -191 97 -236 13 -11 13 -16 1 -41 -22 -44 -73 -90 -134
    -121 -53 -26 -157 -57 -165 -48 -3 2 -12 33 -21 69 -20 78 -21 174 0 223 41
    98 124 180 189 184 34 2 35 1 33 -30z m494 -23 c74 -73 104 -135 107 -221 2
    -74 -17 -178 -35 -196 -17 -17 -134 19 -200 61 -31 21 -70 56 -85 80 l-28 42
    32 37 c48 55 81 134 82 198 l0 56 39 -5 c31 -4 51 -16 88 -52z m-786 -130
    c-11 -35 -14 -74 -11 -127 l5 -78 -51 -15 c-28 -8 -68 -15 -89 -15 -36 0 -39
    2 -33 23 15 48 76 145 130 205 32 35 59 61 61 59 2 -1 -4 -25 -12 -52z m1011
    -25 c57 -67 130 -201 114 -210 -12 -8 -106 6 -144 20 -25 9 -25 12 -22 77 3
    36 -1 92 -7 124 -15 69 -9 68 59 -11z m-1285 45 c47 -2 103 0 126 4 l41 8 -53
    -74 c-29 -41 -63 -100 -75 -132 l-21 -58 -46 9 c-26 4 -73 16 -104 24 -68 19
    -69 25 -37 130 30 97 36 107 62 99 12 -4 60 -8 107 -10z m1658 -65 c10 -36 22
    -81 26 -101 l6 -36 -72 -21 c-40 -12 -89 -24 -109 -27 l-35 -6 -18 56 c-15 50
    -95 181 -118 196 -6 4 41 4 103 2 63 -3 130 -1 149 4 19 6 38 7 42 4 3 -3 15
    -35 26 -71z m-977 -239 c-29 -87 -80 -182 -113 -208 -12 -10 -18 -5 -36 33
    -13 25 -25 65 -28 87 l-5 42 56 24 c32 14 77 45 103 71 26 25 48 45 50 44 2
    -1 -10 -43 -27 -93z m254 -21 c36 -18 65 -36 65 -40 0 -18 -34 -117 -47 -137
    l-16 -24 -25 28 c-45 53 -122 228 -122 280 0 7 18 -7 40 -31 22 -23 69 -58
    105 -76z m-632 -15 l14 -40 60 2 c56 1 59 0 61 -24 1 -14 14 -53 28 -86 14
    -34 26 -68 27 -75 4 -28 -209 -120 -315 -135 l-38 -6 -24 77 c-34 109 -54 286
    -33 299 5 3 33 7 63 9 29 3 71 10 91 17 45 16 48 14 66 -38z m978 30 c32 -8
    62 -15 66 -14 4 1 23 1 41 0 l33 -1 -2 -76 c-3 -109 -51 -304 -74 -304 -56 0
    -252 70 -321 114 l-31 20 28 59 c15 33 31 77 34 98 7 42 8 42 74 30 l43 -9 20
    49 c12 27 23 49 25 49 3 0 31 -7 64 -15z m-419 -228 l40 -48 -23 -27 c-56 -63
    -119 -122 -132 -122 -18 0 -147 134 -147 152 0 7 14 26 31 43 31 30 109 175
    109 204 0 9 19 -22 41 -69 22 -47 58 -107 81 -133z"/>
  </g>
</svg>
